<?xml version="1.0" encoding="UTF-8"?>
<svg xmlns="http://www.w3.org/2000/svg" xmlns:xlink="http://www.w3.org/1999/xlink" width="1280px" height="541px" viewBox="0 0 1280 541" version="1.1">
<g id="surface1">
<path style=" stroke:none;fill-rule:nonzero;fill:rgb(11.372549%,34.509804%,72.941176%);fill-opacity:1;" d="M 0 328.054688 L 57.554688 328.054688 L 57.554688 404.65625 L 153.277344 404.65625 L 153.277344 328.054688 L 211.207031 328.054688 L 211.207031 536.394531 L 153.277344 536.394531 L 153.277344 454.242188 L 57.554688 454.242188 L 57.554688 536.394531 L 0 536.394531 Z M 0 328.054688 "/>
<path style=" stroke:none;fill-rule:nonzero;fill:rgb(11.372549%,34.509804%,72.941176%);fill-opacity:1;" d="M 330.070312 446.472656 L 390.085938 446.472656 L 365.660156 377.765625 L 354.5 377.765625 Z M 406.082031 328.054688 L 481.59375 536.394531 L 421.582031 536.394531 L 405.460938 491.25 L 314.324219 491.25 L 298.203125 536.394531 L 239.058594 536.394531 L 314.695312 328.054688 Z M 406.082031 328.054688 "/>
<path style=" stroke:none;fill-rule:nonzero;fill:rgb(11.372549%,34.509804%,72.941176%);fill-opacity:1;" d="M 622.558594 433.332031 C 644.957031 433.332031 652.921875 420.882812 652.921875 404.238281 C 652.921875 387.597656 644.957031 375.515625 622.558594 375.515625 L 566.9375 375.515625 L 566.9375 433.332031 Z M 509.445312 328.054688 L 628.53125 328.054688 C 683.78125 328.054688 710.65625 353.820312 710.65625 401.773438 C 710.65625 435.429688 696.222656 458.113281 668.472656 468.46875 L 719.492188 536.394531 L 653.542969 536.394531 L 612.851562 479.441406 L 567.183594 479.441406 L 567.183594 536.394531 L 509.570312 536.394531 L 509.570312 328.175781 Z M 509.445312 328.054688 "/>
<path style=" stroke:none;fill-rule:nonzero;fill:rgb(11.372549%,34.509804%,72.941176%);fill-opacity:1;" d="M 861.613281 433.332031 C 884.011719 433.332031 891.976562 420.882812 891.976562 404.238281 C 891.976562 387.597656 884.011719 375.515625 861.613281 375.515625 L 805.996094 375.515625 L 805.996094 433.332031 Z M 748.503906 328.054688 L 867.585938 328.054688 C 922.839844 328.054688 949.710938 353.820312 949.710938 401.773438 C 949.710938 435.429688 935.28125 458.113281 907.527344 468.46875 L 958.554688 536.394531 L 892.597656 536.394531 L 851.90625 479.441406 L 806.242188 479.441406 L 806.242188 536.394531 L 748.628906 536.394531 L 748.628906 328.175781 Z M 748.503906 328.054688 "/>
<path style=" stroke:none;fill-rule:nonzero;fill:rgb(11.372549%,34.509804%,72.941176%);fill-opacity:1;" d="M 1044.425781 328.054688 L 987.5625 328.054688 L 987.5625 536.394531 L 1044.425781 536.394531 Z M 1044.425781 328.054688 "/>
<path style=" stroke:none;fill-rule:nonzero;fill:rgb(11.372549%,34.509804%,72.941176%);fill-opacity:1;" d="M 1087.070312 521.273438 L 1087.070312 467.402344 L 1087.316406 467.402344 C 1120.761719 484.535156 1155.316406 493.535156 1184.90625 493.535156 C 1209.265625 493.535156 1221.574219 487.125 1221.574219 475.785156 C 1221.574219 464.441406 1212.621094 460.742188 1166.628906 453.347656 C 1121.757812 446.074219 1086.203125 432.636719 1086.203125 390.84375 C 1086.203125 353.242188 1118.894531 322.296875 1185.773438 322.296875 C 1212.621094 322.296875 1241.335938 328.339844 1266.078125 339.804688 L 1266.078125 393.308594 L 1265.832031 393.308594 C 1241.089844 378.882812 1208.519531 369.761719 1181.542969 369.761719 C 1154.566406 369.761719 1145.121094 376.417969 1145.121094 387.144531 C 1145.121094 400.953125 1163.402344 402.308594 1199.199219 408.59375 C 1244.199219 416.238281 1280 428.8125 1280 473.195312 C 1280 504.386719 1258.121094 541 1182.664062 541 C 1145.121094 541 1115.660156 533.109375 1087.070312 521.273438 Z M 1087.070312 521.273438 "/>
<path style=" stroke:none;fill-rule:nonzero;fill:rgb(100%,20.392157%,24.313725%);fill-opacity:1;" d="M 667.394531 268.871094 C 667.394531 268.871094 697.234375 282.011719 741.625 282.011719 C 809.390625 282.011719 855.515625 256.964844 906.496094 256.964844 C 941.683594 256.964844 966.671875 272.433594 966.671875 272.433594 L 966.671875 214.605469 C 966.671875 214.605469 943.050781 199.132812 909.230469 199.132812 C 850.667969 199.132812 812.371094 224.550781 757.289062 224.550781 C 724.964844 224.550781 701.585938 214.480469 701.585938 214.480469 C 694.253906 236.089844 683.808594 254.386719 667.269531 268.75 Z M 667.394531 268.871094 "/>
<path style=" stroke:none;fill-rule:nonzero;fill:rgb(100%,20.392157%,24.313725%);fill-opacity:1;" d="M 713.359375 142.167969 C 713.359375 152.210938 712.613281 161.761719 711.492188 170.945312 C 711.492188 170.945312 728.910156 178.414062 762.132812 178.414062 C 814.390625 178.414062 855.691406 155.515625 901.230469 155.515625 C 940.546875 155.515625 966.671875 170.945312 966.671875 170.945312 L 966.671875 113.269531 C 966.671875 113.269531 944.648438 97.839844 902.226562 97.839844 C 854.699219 97.839844 817.371094 120.738281 767.730469 120.738281 C 731.523438 120.738281 711.371094 113.269531 711.371094 113.269531 C 712.488281 122.453125 713.234375 132.003906 713.234375 142.046875 Z M 713.359375 142.167969 "/>
<path style=" stroke:none;fill-rule:nonzero;fill:rgb(100%,20.392157%,24.313725%);fill-opacity:1;" d="M 701.875 69.804688 C 701.875 69.804688 725.472656 79.421875 760.625 79.421875 C 816.757812 79.421875 851.167969 57.222656 899.730469 57.222656 C 938.851562 57.222656 966.671875 69.804688 966.671875 69.804688 L 966.671875 11.714844 C 966.671875 11.714844 940.464844 0 897.613281 0 C 840.984375 0 801.242188 21.335938 735.660156 21.335938 C 697.40625 21.335938 662.628906 11.714844 662.628906 11.714844 C 680.015625 27.007812 693.183594 46.371094 701.875 69.804688 Z M 701.875 69.804688 "/>
<path style=" stroke:none;fill-rule:nonzero;fill:rgb(11.372549%,34.509804%,72.941176%);fill-opacity:1;" d="M 0 11.511719 L 145.269531 11.511719 C 199.65625 11.511719 232.308594 33.851562 232.308594 77.171875 C 232.308594 106.300781 217.285156 126.914062 187.984375 136.910156 C 221.878906 148.882812 237.894531 168.261719 237.894531 199.242188 C 237.894531 253.300781 196.550781 272.800781 138.816406 272.800781 L 0 272.800781 Z M 130.992188 116.300781 C 154.582031 116.300781 164.019531 109.265625 164.019531 90.503906 C 164.019531 73.347656 153.464844 66.1875 130.992188 66.1875 L 67.542969 66.1875 L 67.542969 116.175781 L 130.992188 116.175781 Z M 134.34375 217.382812 C 159.550781 217.015625 169.234375 208.742188 169.234375 190.105469 C 169.234375 171.46875 160.171875 163.199219 134.34375 163.199219 L 67.542969 163.199219 L 67.542969 217.628906 L 134.34375 217.261719 Z M 134.34375 217.382812 "/>
<path style=" stroke:none;fill-rule:nonzero;fill:rgb(11.372549%,34.509804%,72.941176%);fill-opacity:1;" d="M 281.996094 11.511719 L 350.460938 11.511719 L 350.460938 272.800781 L 281.996094 272.800781 Z M 281.996094 11.511719 "/>
<path style=" stroke:none;fill-rule:nonzero;fill:rgb(11.372549%,34.509804%,72.941176%);fill-opacity:1;" d="M 408.484375 11.511719 L 531.601562 11.511719 C 613.847656 11.511719 663.789062 59.300781 663.789062 141.785156 C 663.789062 224.273438 613.847656 272.800781 531.601562 272.800781 L 408.484375 272.800781 Z M 527.132812 214.269531 C 569.246094 214.269531 593.96875 192.660156 593.96875 142.652344 C 593.96875 92.640625 569.121094 70.164062 527.132812 70.164062 L 477.1875 70.164062 L 477.1875 214.269531 Z M 527.132812 214.269531 "/>
<path style=" stroke:none;fill-rule:nonzero;fill:rgb(11.372549%,34.509804%,72.941176%);fill-opacity:1;" d="M 1015.414062 11.511719 L 1088.539062 11.511719 L 1198.53125 172.039062 L 1200.027344 172.039062 L 1200.027344 11.511719 L 1266.070312 11.511719 L 1266.070312 272.800781 L 1195.925781 272.800781 L 1082.953125 107.457031 L 1081.464844 107.457031 L 1081.464844 272.800781 L 1015.414062 272.800781 Z M 1015.414062 11.511719 "/>
</g>
</svg>
